<?xml version="1.0" encoding="utf-8"?>
<!-- Generator: Adobe Illustrator 16.0.4, SVG Export Plug-In . SVG Version: 6.00 Build 0)  -->
<!DOCTYPE svg PUBLIC "-//W3C//DTD SVG 1.1//EN" "http://www.w3.org/Graphics/SVG/1.1/DTD/svg11.dtd">
<svg version="1.1" id="Layer_1" xmlns="http://www.w3.org/2000/svg" xmlns:xlink="http://www.w3.org/1999/xlink" x="0px" y="0px"
	 width="200px" height="86px" viewBox="0 0 200 86" enable-background="new 0 0 200 86" xml:space="preserve">
<g>
	<path d="M26.162,61.564c-1.991,0-5.309-0.923-6.238-4.221c-1.46,1.45-4.91,4.484-9.555,4.484c-7.831,0-10.353-8.178-10.353-13.321
		c0-8.442,7.433-22.424,19.244-22.424c2.654,0,4.911,0.528,6.503,1.451c2.654-6.727,4.778-11.607,5.84-14.114l0.929-2.77
		c0.531-1.583,1.062-3.298,1.062-4.353c0.664,0.396,7.432,2.506,7.432,6.332c0,0.923-0.133,1.847-0.664,3.297
		C37.974,21.467,24.834,46,24.834,54.837c0,1.848,0.796,2.771,2.256,2.771c3.053,0,7.963-3.43,11.547-11.476
		c0,0,0.133,0,0.265-0.132c0.398,0,0.664,0.132,0.929,0.396l0.266,0.265c0,0.659-0.929,4.484-3.982,8.706
		C34.656,57.476,31.471,61.564,26.162,61.564z M19.26,53.123c0-4.88,1.593-11.343,3.716-17.543c-1.46-1.187-3.053-1.715-4.911-1.715
		c-7.034,0-13.537,9.761-13.537,17.411c0,5.145,3.716,7.386,7.565,7.386c2.787,0,5.574-1.187,7.299-3.692
		C19.26,54.573,19.26,54.046,19.26,53.123z"/>
	<path d="M64.649,37.955c0,6.332-3.451,12.398-6.238,15.959c0.398,0.132,0.929,0.264,1.593,0.264c3.186,0,5.84-3.033,6.901-3.033
		c0.266,0,0.398,0.264,0.398,0.66c0,1.45-2.124,5.935-9.025,5.935c-1.062,0-2.124-0.264-3.318-0.659
		c-0.929,1.187-4.512,4.484-8.892,4.484c-7.3,0-10.22-7.123-10.22-12.267c0-13.586,10.75-21.896,12.874-22.555
		c0.398,0,0.796,0.132,2.256,2.375c1.46-1.056,3.053-2.11,5.84-2.11c5.574,0,7.698,5.936,7.698,8.441
		C64.649,36.372,64.649,37.031,64.649,37.955z M51.643,55.498c-4.645-2.771-5.707-8.311-5.707-13.059
		c0-1.055,0.133-2.242,0.266-3.297c-3.053,3.166-5.309,7.254-5.309,12.003s1.991,6.727,5.574,7.122
		C47.396,58.267,49.121,57.739,51.643,55.498z M58.279,41.12c0-2.638,0-5.276-1.062-5.671c-2.654,0-5.309,6.2-5.309,10.288
		c0,1.979,0.531,5.804,2.654,6.464c1.46-1.979,2.521-4.354,3.185-7.519C58.146,43.626,58.279,42.307,58.279,41.12z"/>
	<path d="M81.503,49.825c0-4.748,1.195-8.045,2.919-12.794c-3.185,5.936-10.352,18.731-11.414,22.82
		c0,0.132-1.991,5.144-4.778,5.144c-4.247,0-5.309-3.562-5.309-8.837c0-11.607,6.769-23.347,7.432-24.798
		c1.062-2.11,2.256-5.672,2.654-6.859c1.195,0,6.105,3.957,6.105,6.727c0,5.936-10.22,14.904-10.22,25.325
		c0,0.659,0,1.187,0.133,1.582c17.651-33.371,20.704-29.018,22.296-36.141c0.398,0,6.105,3.562,6.105,6.595
		c0,0.528-0.266,2.375-0.929,3.034c-2.787,5.936-8.892,13.322-8.892,20.445c0,1.978,0.265,3.43,1.858,3.43
		c2.256,0,6.503-3.43,10.087-11.477c0,0,0.133,0,0.265-0.131c0.266,0,0.531,0.131,0.796,0.396l0.266,0.264
		c0,0.527-4.646,14.905-12.476,14.905c-1.593,0-3.451-0.529-5.043-2.639C82.167,55.102,81.503,52.728,81.503,49.825z"/>
	<path d="M126.228,25.16c-3.583,0-7.564,0.264-12.21,0.659c-5.043,9.893-12.343,24.797-12.343,31.129
		c0,1.714,0.663,2.507,2.123,2.507c3.053,0,8.229-3.166,11.945-11.08c0,0,0.133,0,0.266-0.132c0.265,0,0.53,0.132,0.796,0.396
		l0.266,0.264c0,0-3.053,14.377-14.068,14.51c-2.655,0-7.034-1.584-7.034-7.914c0-7.387,4.512-19.786,8.361-28.755
		c-1.726,0.66-3.318,0.792-4.778,0.792c-5.176,0-8.494-2.902-8.494-5.936c0-1.979,1.328-3.693,3.982-5.144
		c1.593,0,2.256,0.659,2.256,1.055c0,0.264-0.133,0.396-0.398,0.396c-0.398,0-0.531-0.396-1.194-0.396
		c-0.929,0-2.256,0.528-2.256,2.638c0,1.715,1.194,2.638,3.583,2.638c2.521,0,5.309-0.923,10.087-2.11
		c2.123-4.616,5.309-13.322,5.176-13.322c1.593,0,7.3,3.298,7.3,6.859c0,1.45-0.531,2.506-1.46,4.089
		c6.504-1.056,12.078-1.451,16.722-1.451c6.371,0,10.485,0.791,11.945,1.188c0.929,0.396,1.726,0.791,2.389,1.45
		c1.194,1.056,2.521,2.638,2.521,5.276c0,0.396-0.265,3.693-0.929,3.693c-1.062,0-2.92-2.11-13.14-2.77
		C134.589,25.292,130.873,25.16,126.228,25.16z"/>
	<path d="M136.313,5.902c0,1.583-0.796,3.297-1.46,4.749c-3.848,8.178-19.11,40.889-19.11,49.859c0,0.396,0,1.055,0.397,1.055
		c0.93,0,4.646-2.506,10.353-11.607c0.664-0.659,1.194-1.055,1.46-1.055c0.133,0.132,0.266,0.264,0.266,0.659
		c0,3.298-9.821,17.411-13.67,17.411c-1.328,0-4.513,0-4.513-5.408c0-11.08,11.016-41.417,16.723-54.871
		c0.266-0.923,0.531-1.979,0.929-2.901c0.531-1.583,1.062-3.298,1.062-4.353C129.413-0.561,136.313,2.341,136.313,5.902z"/>
	<path d="M123.175,51.937c0-10.553,7.432-22.688,8.096-26.117c-0.398,0.66,6.369,1.847,6.369,7.123c0,1.055-0.53,2.242-1.459,3.429
		c-3.052,5.672-6.901,12.267-6.901,17.938c0,1.979,0.266,3.298,2.257,3.298c3.052,0,7.962-3.43,11.546-11.476
		c0,0,0.133,0,0.265-0.132c0.398,0,0.664,0.132,0.93,0.396l0.266,0.265c0-0.396-2.787,14.904-13.936,14.904
		C125.431,61.564,123.175,56.816,123.175,51.937z M137.905,25.16c-2.521,0-3.45-2.111-3.45-4.353c0-2.77,1.857-4.748,4.38-4.748
		c2.521,0,4.247,1.846,4.247,4.088c0,0.66-0.133,1.187-0.398,1.715C141.755,23.841,139.896,25.16,137.905,25.16z"/>
	<path d="M195.372,73.7c0,1.187-0.398,3.033-5.043,3.033c-3.717,0-11.148-1.319-21.767-10.816c-0.53-0.396-0.663-0.527-1.593-0.527
		c-3.185,0-9.556,1.979-32.914,7.914c0,0.792-41.276,12.136-62.909,12.136c-7.565,0-26.278-1.057-37.958-9.498
		c-1.062-0.659-1.991-1.45-2.787-2.373c-1.46-1.583-2.655-3.562-2.655-6.596c0-1.056,0.133-2.11,0.531-3.165
		c2.256,2.241,5.442,4.089,9.291,5.803c6.769,3.034,17.253,5.804,33.711,5.804c4.645,0,9.688-0.264,15.129-0.791
		c4.778-0.396,9.821-1.055,14.998-1.847c9.024-1.451,20.438-3.298,31.189-6.331c2.122-0.396,15.527-4.617,29.064-6.331
		c-4.114-3.825-6.769-7.65-8.494-10.685c-5.309,8.441-4.91,12.135-9.29,12.135c-1.593,0-4.513-0.264-4.513-6.33
		c0-11.344,9.821-36.01,12.343-41.418c0.266-0.264,2.256-5.276,2.256-7.782c0.664,0,7.433,2.902,7.433,6.463
		c0,2.77-16.324,30.732-16.324,42.208c10.617-19.257,23.093-27.831,22.961-27.831c0.132,0.132,0.397,0.264,0.663,0.396
		c0.531,0.396,0.796,0.659,0.796,0.791c-0.132,0-7.166,7.123-10.617,13.058c0.664,5.804,5.441,12.663,10.617,18.863h0.93
		c2.787,0.264,5.441,0.659,8.096,1.187c4.646,0.923,9.556,2.507,13.14,5.145C194.178,68.292,195.372,70.798,195.372,73.7z
		 M190.063,74.228c0.929,0,1.726-0.264,2.123-0.659c0.266-0.265,0.531-0.528,0.664-0.792c-0.664-3.034-5.043-4.88-9.29-5.936
		c-2.522-0.66-5.31-1.056-8.494-1.319c2.256,2.771,5.574,4.749,8.096,6.199c1.46,0.792,3.053,1.451,4.513,1.979
		C188.471,74.096,189.268,74.228,190.063,74.228z"/>
	<path d="M200.016,49.957c-1.326,2.507-2.919,4.616-4.644,6.464c-3.053,3.166-7.698,6.331-13.937,6.331
		c-9.29,0-12.343-8.838-12.343-14.245c0-11.872,8.627-23.347,17.785-23.347c5.707,0,8.892,3.825,8.892,7.518
		c0,7.387-6.901,13.85-15.13,13.85c-2.787,0-4.778-0.66-5.707-1.583c-0.531,1.583-0.796,3.166-0.796,4.748
		c0,4.88,3.317,9.63,8.494,9.63c3.849,0,8.361-2.771,10.617-4.354c5.309-3.957,5.309-5.672,5.973-5.672c0.133,0,0.398,0,0.529,0.132
		C199.883,49.562,200.016,49.825,200.016,49.957z M175.464,42.966c0.265,0.132,0.796,0.132,1.725,0.132
		c5.31,0,10.22-5.671,10.22-8.573c0-1.187-0.663-1.715-1.858-1.715c-1.725,0-4.246,1.187-6.769,4.353
		C177.587,38.877,176.393,40.856,175.464,42.966z"/>
</g>
<g>
</g>
<g>
</g>
<g>
</g>
<g>
</g>
<g>
</g>
<g>
</g>
<g>
</g>
<g>
</g>
<g>
</g>
<g>
</g>
<g>
</g>
<g>
</g>
<g>
</g>
<g>
</g>
<g>
</g>
</svg>
