<svg style="position:absolute;width:0;height:0" width="0" height="0" xmlns="http://www.w3.org/2000/svg"><defs><symbol id="icon-dontlike-logo" viewBox="0 0 74 32"><title>dontlike-logo</title><path class="path1" d="M9.735 22.908c-.741 0-1.975-.343-2.321-1.571-.543.54-1.827 1.668-3.555 1.668-2.914 0-3.852-3.043-3.852-4.957 0-3.141 2.766-8.344 7.161-8.344.988 0 1.827.196 2.42.54.988-2.503 1.778-4.319 2.173-5.252l.346-1.031c.198-.589.395-1.227.395-1.62.247.147 2.765.932 2.765 2.356 0 .343-.05.687-.247 1.227-.889 2.062-5.778 11.191-5.778 14.479 0 .688.296 1.031.839 1.031 1.136 0 2.963-1.276 4.297-4.27 0 0 .05 0 .099-.049.148 0 .247.049.346.147l.099.099c0 .245-.346 1.668-1.482 3.239-.543.785-1.728 2.306-3.703 2.306zm-2.568-3.141c0-1.816.593-4.221 1.383-6.528-.543-.442-1.136-.638-1.827-.638-2.617 0-5.037 3.632-5.037 6.478 0 1.914 1.383 2.748 2.815 2.748 1.037 0 2.074-.442 2.716-1.374-.049-.148-.049-.344-.049-.687z"/><path class="path2" d="M24.055 14.123c0 2.356-1.284 4.613-2.321 5.938.148.049.346.098.593.098 1.186 0 2.173-1.129 2.568-1.129.099 0 .148.098.148.246 0 .54-.79 2.208-3.358 2.208-.395 0-.79-.098-1.235-.245-.346.442-1.679 1.668-3.309 1.668-2.716 0-3.803-2.65-3.803-4.564 0-5.055 4-8.147 4.79-8.393.148 0 .296.049.839.884.543-.393 1.136-.785 2.173-.785 2.074 0 2.864 2.209 2.864 3.141.049.343.049.589.049.932zm-4.839 6.527c-1.728-1.031-2.124-3.092-2.124-4.859 0-.393.049-.834.099-1.227-1.136 1.178-1.975 2.699-1.975 4.466s.741 2.503 2.074 2.65c.346 0 .988-.196 1.926-1.03zm2.469-5.35c0-.982 0-1.963-.395-2.11-.988 0-1.975 2.307-1.975 3.828 0 .736.198 2.16.988 2.405.543-.736.938-1.62 1.185-2.798.148-.393.198-.884.198-1.325z"/><path class="path3" d="M30.327 18.54c0-1.767.445-2.994 1.086-4.761-1.185 2.209-3.852 6.97-4.247 8.491 0 .049-.741 1.914-1.778 1.914-1.58 0-1.975-1.325-1.975-3.288 0-4.319 2.519-8.687 2.765-9.227.395-.785.839-2.111.988-2.552.445 0 2.272 1.472 2.272 2.503 0 2.209-3.803 5.546-3.803 9.423 0 .245 0 .442.049.589 6.568-12.417 7.704-10.797 8.296-13.448.148 0 2.272 1.325 2.272 2.454 0 .196-.099.884-.346 1.129-1.037 2.209-3.309 4.957-3.309 7.607 0 .736.099 1.276.691 1.276.839 0 2.42-1.276 3.753-4.271 0 0 .05 0 .099-.049.099 0 .198.049.296.147l.099.098c0 .196-1.729 5.546-4.642 5.546-.593 0-1.284-.197-1.876-.982-.443-.638-.69-1.521-.69-2.601z"/><path class="path4" d="M46.969 9.362c-1.333 0-2.815.098-4.543.245-1.876 3.681-4.593 9.227-4.593 11.583 0 .638.247.933.79.933 1.136 0 3.062-1.178 4.445-4.123 0 0 .05 0 .099-.049.099 0 .197.049.296.147l.099.098s-1.136 5.35-5.235 5.399c-.988 0-2.617-.589-2.617-2.945 0-2.749 1.679-7.362 3.111-10.7-.642.246-1.235.295-1.778.295-1.926 0-3.161-1.08-3.161-2.209 0-.736.494-1.374 1.482-1.914.593 0 .839.245.839.393 0 .098-.05.147-.148.147-.148 0-.198-.147-.444-.147-.346 0-.839.196-.839.982 0 .638.444.982 1.333.982.938 0 1.975-.343 3.753-.785.79-1.718 1.975-4.957 1.926-4.957.593 0 2.716 1.227 2.716 2.552 0 .54-.198.932-.543 1.521 2.42-.393 4.494-.54 6.222-.54 2.371 0 3.901.294 4.445.442.346.147.642.294.889.54.444.393.938.982.938 1.963 0 .147-.099 1.374-.346 1.374-.395 0-1.087-.785-4.889-1.031-1.136-.148-2.519-.197-4.247-.197z"/><path class="path5" d="M50.721 2.196c0 .589-.296 1.227-.543 1.767-1.432 3.043-7.111 15.214-7.111 18.552 0 .147 0 .393.148.393.346 0 1.729-.932 3.852-4.319.247-.245.444-.393.543-.393.05.049.099.098.099.245 0 1.227-3.654 6.479-5.087 6.479-.494 0-1.679 0-1.679-2.012 0-4.123 4.099-15.411 6.223-20.417.099-.343.198-.736.346-1.079.198-.589.395-1.227.395-1.62.247 0 2.814 1.079 2.814 2.404z"/><path class="path6" d="M45.833 19.325c0-3.927 2.765-8.442 3.012-9.718-.148.246 2.37.687 2.37 2.65 0 .393-.197.834-.543 1.276-1.136 2.111-2.568 4.564-2.568 6.675 0 .736.099 1.227.84 1.227 1.136 0 2.963-1.276 4.296-4.27 0 0 .05 0 .099-.049.148 0 .247.049.346.147l.099.099c0-.147-1.037 5.546-5.185 5.546-1.926 0-2.766-1.767-2.766-3.582zm5.48-9.963c-.938 0-1.284-.786-1.284-1.62 0-1.031.691-1.767 1.63-1.767s1.58.687 1.58 1.521c0 .246-.05.442-.148.638-.346.736-1.037 1.227-1.778 1.227z"/><path class="path7" d="M72.697 27.423c0 .442-.148 1.129-1.876 1.129-1.383 0-4.148-.491-8.099-4.025-.197-.147-.247-.196-.593-.196-1.185 0-3.556.736-12.247 2.945 0 .295-15.358 4.516-23.408 4.516-2.815 0-9.778-.393-14.124-3.534a4.48 4.48 0 0 1-1.037-.883c-.543-.589-.988-1.325-.988-2.454 0-.393.05-.785.198-1.178.839.834 2.025 1.521 3.457 2.159 2.519 1.129 6.42 2.16 12.544 2.16 1.728 0 3.605-.098 5.629-.294 1.778-.147 3.654-.393 5.581-.687 3.358-.54 7.605-1.227 11.605-2.356.79-.147 5.778-1.718 10.815-2.356a16.622 16.622 0 0 1-3.161-3.976c-1.975 3.141-1.827 4.515-3.457 4.515-.593 0-1.679-.098-1.679-2.355 0-4.221 3.654-13.399 4.593-15.411.099-.098.839-1.963.839-2.896.247 0 2.766 1.08 2.766 2.405 0 1.031-6.074 11.435-6.074 15.705C57.931 13.191 62.574 10 62.525 10c.049.049.148.098.247.147.198.147.296.245.296.294-.049 0-2.666 2.65-3.95 4.859.247 2.16 2.025 4.712 3.95 7.019h.346a29.38 29.38 0 0 1 3.012.442c1.729.343 3.556.933 4.889 1.914.938.736 1.383 1.668 1.383 2.748zm-1.976.197c.346 0 .642-.098.79-.245.099-.099.198-.196.247-.295-.247-1.129-1.876-1.816-3.457-2.209-.938-.246-1.976-.393-3.161-.491.839 1.031 2.074 1.767 3.012 2.307.543.295 1.136.54 1.679.736.296.147.593.196.889.196z"/><path class="path8" d="M74.425 18.589a11.091 11.091 0 0 1-1.728 2.405c-1.136 1.178-2.864 2.356-5.186 2.356-3.457 0-4.593-3.289-4.593-5.3 0-4.418 3.21-8.687 6.618-8.687 2.124 0 3.309 1.423 3.309 2.797 0 2.749-2.568 5.154-5.63 5.154-1.037 0-1.778-.246-2.124-.589a5.515 5.515 0 0 0-.296 1.767c0 1.816 1.234 3.583 3.161 3.583 1.432 0 3.111-1.031 3.951-1.62 1.975-1.472 1.975-2.11 2.222-2.11.049 0 .148 0 .197.049.05.049.099.147.099.196zm-9.136-2.602c.099.049.296.049.642.049 1.976 0 3.803-2.11 3.803-3.19 0-.442-.247-.638-.691-.638-.642 0-1.58.442-2.519 1.62a12.998 12.998 0 0 0-1.235 2.159z"/></symbol><symbol id="icon-facebook2" viewBox="0 0 16 16"><title>facebook2</title><path class="path1" d="M14.5 0h-13C.675 0 0 .675 0 1.5v13c0 .825.675 1.5 1.5 1.5H8V9H6V7h2V6c0-1.653 1.347-3 3-3h2v2h-2c-.55 0-1 .45-1 1v1h3l-.5 2H10v7h4.5c.825 0 1.5-.675 1.5-1.5v-13c0-.825-.675-1.5-1.5-1.5z"/></symbol><symbol id="icon-twitter" viewBox="0 0 16 16"><title>twitter</title><path class="path1" d="M16 3.538a6.461 6.461 0 0 1-1.884.516 3.301 3.301 0 0 0 1.444-1.816 6.607 6.607 0 0 1-2.084.797 3.28 3.28 0 0 0-2.397-1.034 3.28 3.28 0 0 0-3.197 4.028 9.321 9.321 0 0 1-6.766-3.431 3.284 3.284 0 0 0 1.015 4.381A3.301 3.301 0 0 1 .643 6.57v.041A3.283 3.283 0 0 0 3.277 9.83a3.291 3.291 0 0 1-1.485.057 3.293 3.293 0 0 0 3.066 2.281 6.586 6.586 0 0 1-4.862 1.359 9.286 9.286 0 0 0 5.034 1.475c6.037 0 9.341-5.003 9.341-9.341 0-.144-.003-.284-.009-.425a6.59 6.59 0 0 0 1.637-1.697z"/></symbol></defs></svg>