<svg style="position: absolute; width: 0; height: 0;" width="0" height="0" version="1.1" xmlns="http://www.w3.org/2000/svg" xmlns:xlink="http://www.w3.org/1999/xlink">
<defs>
<symbol id="icon-dontlike-logo" viewBox="0 0 74 32">
<title>dontlike-logo</title>
<path class="path1" d="M9.735 22.908c-0.741 0-1.975-0.343-2.321-1.571-0.543 0.54-1.827 1.668-3.555 1.668-2.914 0-3.852-3.043-3.852-4.957 0-3.141 2.766-8.344 7.161-8.344 0.988 0 1.827 0.196 2.42 0.54 0.988-2.503 1.778-4.319 2.173-5.252l0.346-1.031c0.198-0.589 0.395-1.227 0.395-1.62 0.247 0.147 2.765 0.932 2.765 2.356 0 0.343-0.050 0.687-0.247 1.227-0.889 2.062-5.778 11.191-5.778 14.479 0 0.688 0.296 1.031 0.839 1.031 1.136 0 2.963-1.276 4.297-4.27 0 0 0.050 0 0.099-0.049 0.148 0 0.247 0.049 0.346 0.147l0.099 0.099c0 0.245-0.346 1.668-1.482 3.239-0.543 0.785-1.728 2.306-3.703 2.306zM7.167 19.767c0-1.816 0.593-4.221 1.383-6.528-0.543-0.442-1.136-0.638-1.827-0.638-2.617 0-5.037 3.632-5.037 6.478 0 1.914 1.383 2.748 2.815 2.748 1.037 0 2.074-0.442 2.716-1.374-0.049-0.148-0.049-0.344-0.049-0.687z"></path>
<path class="path2" d="M24.055 14.123c0 2.356-1.284 4.613-2.321 5.938 0.148 0.049 0.346 0.098 0.593 0.098 1.186 0 2.173-1.129 2.568-1.129 0.099 0 0.148 0.098 0.148 0.246 0 0.54-0.79 2.208-3.358 2.208-0.395 0-0.79-0.098-1.235-0.245-0.346 0.442-1.679 1.668-3.309 1.668-2.716 0-3.803-2.65-3.803-4.564 0-5.055 4-8.147 4.79-8.393 0.148 0 0.296 0.049 0.839 0.884 0.543-0.393 1.136-0.785 2.173-0.785 2.074 0 2.864 2.209 2.864 3.141 0.049 0.343 0.049 0.589 0.049 0.932zM19.216 20.65c-1.728-1.031-2.124-3.092-2.124-4.859 0-0.393 0.049-0.834 0.099-1.227-1.136 1.178-1.975 2.699-1.975 4.466s0.741 2.503 2.074 2.65c0.346 0 0.988-0.196 1.926-1.030zM21.685 15.3c0-0.982 0-1.963-0.395-2.11-0.988 0-1.975 2.307-1.975 3.828 0 0.736 0.198 2.16 0.988 2.405 0.543-0.736 0.938-1.62 1.185-2.798 0.148-0.393 0.198-0.884 0.198-1.325z"></path>
<path class="path3" d="M30.327 18.54c0-1.767 0.445-2.994 1.086-4.761-1.185 2.209-3.852 6.97-4.247 8.491 0 0.049-0.741 1.914-1.778 1.914-1.58 0-1.975-1.325-1.975-3.288 0-4.319 2.519-8.687 2.765-9.227 0.395-0.785 0.839-2.111 0.988-2.552 0.445 0 2.272 1.472 2.272 2.503 0 2.209-3.803 5.546-3.803 9.423 0 0.245 0 0.442 0.049 0.589 6.568-12.417 7.704-10.797 8.296-13.448 0.148 0 2.272 1.325 2.272 2.454 0 0.196-0.099 0.884-0.346 1.129-1.037 2.209-3.309 4.957-3.309 7.607 0 0.736 0.099 1.276 0.691 1.276 0.839 0 2.42-1.276 3.753-4.271 0 0 0.050 0 0.099-0.049 0.099 0 0.198 0.049 0.296 0.147l0.099 0.098c0 0.196-1.729 5.546-4.642 5.546-0.593 0-1.284-0.197-1.876-0.982-0.443-0.638-0.69-1.521-0.69-2.601z"></path>
<path class="path4" d="M46.969 9.362c-1.333 0-2.815 0.098-4.543 0.245-1.876 3.681-4.593 9.227-4.593 11.583 0 0.638 0.247 0.933 0.79 0.933 1.136 0 3.062-1.178 4.445-4.123 0 0 0.050 0 0.099-0.049 0.099 0 0.197 0.049 0.296 0.147l0.099 0.098c0 0-1.136 5.35-5.235 5.399-0.988 0-2.617-0.589-2.617-2.945 0-2.749 1.679-7.362 3.111-10.7-0.642 0.246-1.235 0.295-1.778 0.295-1.926 0-3.161-1.080-3.161-2.209 0-0.736 0.494-1.374 1.482-1.914 0.593 0 0.839 0.245 0.839 0.393 0 0.098-0.050 0.147-0.148 0.147-0.148 0-0.198-0.147-0.444-0.147-0.346 0-0.839 0.196-0.839 0.982 0 0.638 0.444 0.982 1.333 0.982 0.938 0 1.975-0.343 3.753-0.785 0.79-1.718 1.975-4.957 1.926-4.957 0.593 0 2.716 1.227 2.716 2.552 0 0.54-0.198 0.932-0.543 1.521 2.42-0.393 4.494-0.54 6.222-0.54 2.371 0 3.901 0.294 4.445 0.442 0.346 0.147 0.642 0.294 0.889 0.54 0.444 0.393 0.938 0.982 0.938 1.963 0 0.147-0.099 1.374-0.346 1.374-0.395 0-1.087-0.785-4.889-1.031-1.136-0.148-2.519-0.197-4.247-0.197z"></path>
<path class="path5" d="M50.721 2.196c0 0.589-0.296 1.227-0.543 1.767-1.432 3.043-7.111 15.214-7.111 18.552 0 0.147 0 0.393 0.148 0.393 0.346 0 1.729-0.932 3.852-4.319 0.247-0.245 0.444-0.393 0.543-0.393 0.050 0.049 0.099 0.098 0.099 0.245 0 1.227-3.654 6.479-5.087 6.479-0.494 0-1.679 0-1.679-2.012 0-4.123 4.099-15.411 6.223-20.417 0.099-0.343 0.198-0.736 0.346-1.079 0.198-0.589 0.395-1.227 0.395-1.62 0.247-0 2.814 1.079 2.814 2.404z"></path>
<path class="path6" d="M45.833 19.325c0-3.927 2.765-8.442 3.012-9.718-0.148 0.246 2.37 0.687 2.37 2.65 0 0.393-0.197 0.834-0.543 1.276-1.136 2.111-2.568 4.564-2.568 6.675 0 0.736 0.099 1.227 0.84 1.227 1.136 0 2.963-1.276 4.296-4.27 0 0 0.050 0 0.099-0.049 0.148 0 0.247 0.049 0.346 0.147l0.099 0.099c0-0.147-1.037 5.546-5.185 5.546-1.926-0-2.766-1.767-2.766-3.582zM51.313 9.362c-0.938 0-1.284-0.786-1.284-1.62 0-1.031 0.691-1.767 1.63-1.767s1.58 0.687 1.58 1.521c0 0.246-0.050 0.442-0.148 0.638-0.346 0.736-1.037 1.227-1.778 1.227z"></path>
<path class="path7" d="M72.697 27.423c0 0.442-0.148 1.129-1.876 1.129-1.383 0-4.148-0.491-8.099-4.025-0.197-0.147-0.247-0.196-0.593-0.196-1.185 0-3.556 0.736-12.247 2.945 0 0.295-15.358 4.516-23.408 4.516-2.815 0-9.778-0.393-14.124-3.534-0.395-0.245-0.741-0.54-1.037-0.883-0.543-0.589-0.988-1.325-0.988-2.454 0-0.393 0.050-0.785 0.198-1.178 0.839 0.834 2.025 1.521 3.457 2.159 2.519 1.129 6.42 2.16 12.544 2.16 1.728 0 3.605-0.098 5.629-0.294 1.778-0.147 3.654-0.393 5.581-0.687 3.358-0.54 7.605-1.227 11.605-2.356 0.79-0.147 5.778-1.718 10.815-2.356-1.531-1.423-2.519-2.846-3.161-3.976-1.975 3.141-1.827 4.515-3.457 4.515-0.593 0-1.679-0.098-1.679-2.355 0-4.221 3.654-13.399 4.593-15.411 0.099-0.098 0.839-1.963 0.839-2.896 0.247 0 2.766 1.080 2.766 2.405 0 1.031-6.074 11.435-6.074 15.705 3.95-7.165 8.593-10.356 8.544-10.356 0.049 0.049 0.148 0.098 0.247 0.147 0.198 0.147 0.296 0.245 0.296 0.294-0.049 0-2.666 2.65-3.95 4.859 0.247 2.16 2.025 4.712 3.95 7.019h0.346c1.037 0.098 2.025 0.245 3.012 0.442 1.729 0.343 3.556 0.933 4.889 1.914 0.938 0.736 1.383 1.668 1.383 2.748zM70.721 27.62c0.346 0 0.642-0.098 0.79-0.245 0.099-0.099 0.198-0.196 0.247-0.295-0.247-1.129-1.876-1.816-3.457-2.209-0.938-0.246-1.976-0.393-3.161-0.491 0.839 1.031 2.074 1.767 3.012 2.307 0.543 0.295 1.136 0.54 1.679 0.736 0.296 0.147 0.593 0.196 0.889 0.196z"></path>
<path class="path8" d="M74.425 18.589c-0.493 0.933-1.086 1.718-1.728 2.405-1.136 1.178-2.864 2.356-5.186 2.356-3.457 0-4.593-3.289-4.593-5.3 0-4.418 3.21-8.687 6.618-8.687 2.124 0 3.309 1.423 3.309 2.797 0 2.749-2.568 5.154-5.63 5.154-1.037 0-1.778-0.246-2.124-0.589-0.198 0.589-0.296 1.178-0.296 1.767 0 1.816 1.234 3.583 3.161 3.583 1.432 0 3.111-1.031 3.951-1.62 1.975-1.472 1.975-2.11 2.222-2.11 0.049 0 0.148 0 0.197 0.049 0.050 0.049 0.099 0.147 0.099 0.196zM65.289 15.987c0.099 0.049 0.296 0.049 0.642 0.049 1.976 0 3.803-2.11 3.803-3.19 0-0.442-0.247-0.638-0.691-0.638-0.642 0-1.58 0.442-2.519 1.62-0.445 0.638-0.889 1.374-1.235 2.159z"></path>
</symbol>
<symbol id="icon-facebook2" viewBox="0 0 16 16">
<title>facebook2</title>
<path class="path1" d="M14.5 0h-13c-0.825 0-1.5 0.675-1.5 1.5v13c0 0.825 0.675 1.5 1.5 1.5h6.5v-7h-2v-2h2v-1c0-1.653 1.347-3 3-3h2v2h-2c-0.55 0-1 0.45-1 1v1h3l-0.5 2h-2.5v7h4.5c0.825 0 1.5-0.675 1.5-1.5v-13c0-0.825-0.675-1.5-1.5-1.5z"></path>
</symbol>
<symbol id="icon-instagram" viewBox="0 0 16 16">
<title>instagram</title>
<path class="path1" d="M14.5 0h-13c-0.825 0-1.5 0.675-1.5 1.5v13c0 0.825 0.675 1.5 1.5 1.5h13c0.825 0 1.5-0.675 1.5-1.5v-13c0-0.825-0.675-1.5-1.5-1.5zM11 2.5c0-0.275 0.225-0.5 0.5-0.5h2c0.275 0 0.5 0.225 0.5 0.5v2c0 0.275-0.225 0.5-0.5 0.5h-2c-0.275 0-0.5-0.225-0.5-0.5v-2zM8 5c1.656 0 3 1.344 3 3s-1.344 3-3 3c-1.656 0-3-1.344-3-3s1.344-3 3-3zM14 13.5v0c0 0.275-0.225 0.5-0.5 0.5h-11c-0.275 0-0.5-0.225-0.5-0.5v0-6.5h1.1c-0.066 0.322-0.1 0.656-0.1 1 0 2.762 2.237 5 5 5s5-2.238 5-5c0-0.344-0.034-0.678-0.1-1h1.1v6.5z"></path>
</symbol>
<symbol id="icon-twitter" viewBox="0 0 16 16">
<title>twitter</title>
<path class="path1" d="M16 3.538c-0.588 0.263-1.222 0.438-1.884 0.516 0.678-0.406 1.197-1.050 1.444-1.816-0.634 0.375-1.338 0.65-2.084 0.797-0.6-0.638-1.453-1.034-2.397-1.034-1.813 0-3.281 1.469-3.281 3.281 0 0.256 0.028 0.506 0.084 0.747-2.728-0.138-5.147-1.444-6.766-3.431-0.281 0.484-0.444 1.050-0.444 1.65 0 1.138 0.578 2.144 1.459 2.731-0.538-0.016-1.044-0.166-1.488-0.409 0 0.013 0 0.028 0 0.041 0 1.591 1.131 2.919 2.634 3.219-0.275 0.075-0.566 0.116-0.866 0.116-0.212 0-0.416-0.022-0.619-0.059 0.419 1.303 1.631 2.253 3.066 2.281-1.125 0.881-2.538 1.406-4.078 1.406-0.266 0-0.525-0.016-0.784-0.047 1.456 0.934 3.181 1.475 5.034 1.475 6.037 0 9.341-5.003 9.341-9.341 0-0.144-0.003-0.284-0.009-0.425 0.641-0.459 1.197-1.038 1.637-1.697z"></path>
</symbol>
<symbol id="icon-youtube" viewBox="0 0 16 16">
<title>youtube</title>
<path class="path1" d="M15.841 4.8c0 0-0.156-1.103-0.637-1.587-0.609-0.637-1.291-0.641-1.603-0.678-2.237-0.163-5.597-0.163-5.597-0.163h-0.006c0 0-3.359 0-5.597 0.163-0.313 0.038-0.994 0.041-1.603 0.678-0.481 0.484-0.634 1.587-0.634 1.587s-0.159 1.294-0.159 2.591v1.213c0 1.294 0.159 2.591 0.159 2.591s0.156 1.103 0.634 1.588c0.609 0.637 1.409 0.616 1.766 0.684 1.281 0.122 5.441 0.159 5.441 0.159s3.363-0.006 5.6-0.166c0.313-0.037 0.994-0.041 1.603-0.678 0.481-0.484 0.637-1.588 0.637-1.588s0.159-1.294 0.159-2.591v-1.213c-0.003-1.294-0.162-2.591-0.162-2.591zM6.347 10.075v-4.497l4.322 2.256-4.322 2.241z"></path>
</symbol>
</defs>
</svg>
