<?xml version="1.0" standalone="no"?>
<!DOCTYPE svg PUBLIC "-//W3C//DTD SVG 20010904//EN"
 "http://www.w3.org/TR/2001/REC-SVG-20010904/DTD/svg10.dtd">
<svg version="1.0" xmlns="http://www.w3.org/2000/svg"
 width="800.000000pt" height="800.000000pt" viewBox="0 0 800.000000 800.000000"
 preserveAspectRatio="xMidYMid meet">
<metadata>
Created by potrace 1.11, written by Peter Selinger 2001-2013
</metadata>
<g transform="translate(0.000000,800.000000) scale(0.100000,-0.100000)"
fill="#000000" stroke="none">
<path d="M689 7996 c-2 -2 -22 -6 -44 -9 -120 -17 -279 -97 -388 -197 -101
-92 -170 -199 -220 -344 l-32 -91 0 -3355 0 -3355 32 -91 c17 -50 44 -113 59
-140 113 -203 313 -351 539 -399 61 -13 493 -14 3395 -12 l3325 2 91 32 c50
17 113 44 140 59 203 113 351 313 399 539 13 61 14 493 12 3395 l-2 3325 -23
69 c-102 301 -282 468 -603 564 -24 7 -6672 15 -6680 8z m1231 -3576 l0 -1220
-188 0 -188 0 -47 100 c-29 64 -51 100 -61 100 -9 0 -16 -4 -16 -10 0 -22
-132 -139 -196 -172 -104 -55 -169 -68 -309 -64 -124 3 -131 4 -202 30 -225
81 -388 320 -429 631 -3 28 -8 59 -11 70 -5 24 -4 318 2 357 22 169 56 289
107 386 122 229 309 345 558 345 113 0 180 -14 276 -59 71 -34 175 -116 210
-166 19 -28 47 -39 39 -15 -14 41 -18 124 -22 495 l-5 412 241 0 241 0 0
-1220z m5160 720 l0 -180 240 0 240 0 0 -180 0 -180 -240 0 -240 0 0 -472 c1
-424 3 -476 18 -505 50 -94 155 -112 360 -63 46 11 87 20 93 20 5 0 9 -73 9
-174 l0 -175 -52 -19 c-141 -52 -405 -75 -541 -46 -200 43 -322 173 -352 374
-12 79 -14 168 -14 618 l-1 442 -120 0 -120 0 0 93 0 92 43 26 c23 14 83 51
132 82 l90 56 26 73 c25 69 82 226 100 276 8 22 12 22 169 22 l160 0 0 -180z
m-3712 -185 c41 -8 104 -27 140 -41 80 -32 213 -118 264 -171 95 -100 195
-294 213 -414 4 -24 8 -46 11 -50 6 -10 14 -127 15 -214 3 -226 -50 -427 -152
-576 -153 -225 -378 -333 -699 -333 -173 0 -277 22 -409 87 -246 122 -390 346
-437 687 -5 31 -4 246 0 280 2 14 6 46 10 71 7 51 32 155 45 184 29 67 76 162
85 172 6 6 25 31 41 54 44 61 155 151 238 192 75 37 197 73 282 83 28 4 51 7
52 8 10 9 243 -6 301 -19z m2185 11 c117 -16 252 -80 322 -152 40 -42 88 -121
114 -186 45 -112 48 -166 50 -815 l2 -613 -240 0 -240 0 -3 578 c-4 636 -4
632 -68 720 -63 88 -204 118 -350 76 -141 -41 -224 -163 -246 -364 -4 -30 -8
-62 -10 -70 -1 -8 -3 -223 -3 -477 l-1 -463 -240 0 -240 0 0 880 0 880 188 0
189 0 21 -77 c11 -43 26 -97 32 -120 6 -24 16 -43 21 -43 6 0 43 33 83 73 77
78 134 113 236 146 109 35 249 45 383 27z m-3778 -2000 c136 -12 210 -103 201
-243 -6 -74 -26 -122 -70 -160 -48 -43 -97 -57 -196 -56 -171 1 -249 75 -251
240 -1 117 69 200 187 221 27 4 56 7 64 6 8 -2 38 -5 65 -8z m-815 -1226 l0
-1220 -240 0 -240 0 0 1220 0 1220 240 0 240 0 0 -1220z m2000 683 c0 -307 -5
-575 -10 -623 -6 -47 -13 -114 -16 -150 -3 -36 -9 -89 -13 -117 -4 -29 -6 -53
-4 -53 8 0 26 22 125 148 54 68 141 171 195 229 54 59 112 121 128 139 172
186 233 251 248 266 15 16 40 18 283 18 292 0 275 4 219 -55 -11 -11 -42 -45
-69 -75 -27 -30 -74 -82 -105 -115 -75 -81 -144 -156 -216 -235 -33 -36 -100
-110 -150 -164 -49 -54 -93 -104 -98 -112 -5 -9 84 -136 271 -386 153 -205
298 -400 322 -433 24 -33 48 -64 52 -70 28 -34 78 -105 78 -109 0 -3 -123 -6
-272 -6 l-273 1 -70 101 c-38 56 -87 127 -108 157 -21 31 -43 63 -50 71 -7 9
-45 65 -86 125 -41 61 -77 112 -81 115 -3 3 -26 35 -50 72 -25 37 -49 68 -53
68 -5 0 -51 -35 -102 -77 l-94 -78 -1 -277 0 -278 -240 0 -240 0 0 1220 0
1220 240 0 240 0 0 -537z m2406 -123 c113 -23 129 -27 186 -53 147 -66 262
-180 330 -327 57 -123 74 -228 77 -482 l2 -158 -560 0 c-528 0 -561 -1 -561
-17 1 -48 32 -160 60 -212 78 -146 192 -203 405 -202 61 1 119 3 130 5 11 2
40 7 65 10 73 10 155 33 264 76 56 22 105 40 109 40 4 0 6 -82 5 -182 l-3
-181 -32 -18 c-38 -21 -175 -64 -253 -79 -157 -31 -437 -34 -570 -6 -356 74
-597 321 -645 661 -2 11 -6 41 -10 68 -17 123 -7 319 25 464 56 251 235 465
460 550 36 14 74 27 85 29 11 2 34 7 50 10 107 22 282 24 381 4z m-3406 -900
l0 -880 -240 0 -240 0 0 880 0 880 240 0 240 0 0 -880z"/>
<path d="M1002 4575 c-111 -34 -181 -119 -223 -271 -18 -64 -23 -107 -23 -224
-1 -171 5 -223 34 -309 37 -110 96 -179 186 -217 44 -19 182 -26 229 -12 16 5
37 11 47 13 87 19 162 112 183 227 3 12 13 64 24 113 51 239 -2 520 -116 614
-79 65 -242 96 -341 66z"/>
<path d="M3057 4580 c-53 -14 -107 -43 -141 -76 -28 -28 -82 -130 -91 -173 -3
-11 -7 -31 -10 -43 -31 -141 -23 -379 17 -508 21 -70 69 -145 113 -178 128
-97 352 -86 457 22 80 82 121 231 121 436 1 278 -66 438 -208 501 -56 25 -194
35 -258 19z"/>
<path d="M5107 1968 c-136 -29 -225 -144 -251 -326 l-6 -42 337 2 338 3 -3 50
c-8 143 -93 265 -214 304 -46 15 -151 20 -201 9z"/>
</g>
</svg>
