<?xml version="1.0" standalone="no"?>
<!DOCTYPE svg PUBLIC "-//W3C//DTD SVG 20010904//EN"
 "http://www.w3.org/TR/2001/REC-SVG-20010904/DTD/svg10.dtd">
<svg version="1.0" xmlns="http://www.w3.org/2000/svg"
 width="800.000000pt" height="800.000000pt" viewBox="0 0 800.000000 800.000000"
 preserveAspectRatio="xMidYMid meet">
<metadata>
Created by potrace 1.11, written by Peter Selinger 2001-2013
</metadata>
<g transform="translate(0.000000,800.000000) scale(0.100000,-0.100000)"
fill="#000000" stroke="none">
<path d="M0 4000 l0 -4000 780 0 780 0 0 735 0 736 -27 -14 c-140 -71 -312 36
-313 194 0 78 36 134 142 216 326 253 756 522 1055 659 56 27 103 53 103 59 0
7 -43 128 -96 271 -318 859 -451 1268 -484 1502 -7 46 -11 134 -8 197 4 102 7
119 36 178 75 152 229 218 400 173 200 -54 417 -214 902 -666 197 -184 383
-351 386 -347 5 4 -71 266 -113 387 -153 451 -373 840 -639 1131 -90 99 -105
173 -56 270 36 72 92 111 167 117 87 7 129 -15 227 -116 281 -292 543 -760
718 -1282 120 -356 182 -622 184 -780 1 -131 -18 -195 -78 -255 -67 -66 -122
-88 -214 -83 -167 8 -318 118 -887 647 -293 273 -416 378 -564 481 l-33 23 7
-44 c32 -194 200 -695 521 -1555 l37 -101 115 33 c282 82 495 114 798 121 316
8 518 -14 799 -87 353 -92 731 -277 1050 -514 63 -47 115 -83 115 -80 0 11
-276 635 -455 1029 -199 438 -367 795 -523 1115 l-111 225 0 -365 c-1 -334 -3
-368 -19 -399 -20 -37 -73 -71 -110 -71 -38 0 -93 31 -113 64 -18 29 -19 62
-19 655 l0 624 -52 96 c-150 279 -361 637 -501 846 -188 282 -432 560 -571
650 -123 80 -235 99 -328 56 -54 -26 -142 -115 -183 -185 -128 -219 -214 -578
-244 -1018 -7 -110 -12 -133 -35 -172 -84 -144 -300 -134 -378 17 -17 35 -20
58 -19 146 3 200 48 533 101 742 51 200 146 430 232 559 261 395 695 482 1090
217 678 -453 1496 -1959 3044 -5602 96 -225 177 -429 181 -452 23 -164 -152
-293 -302 -224 -53 24 -81 57 -150 171 -174 289 -467 634 -730 860 -162 139
-446 336 -527 366 -17 6 -18 -24 -18 -535 l0 -541 -33 -36 c-43 -47 -108 -57
-159 -26 -66 42 -63 7 -66 667 -2 458 -5 601 -15 607 -23 15 -223 78 -322 101
l-100 24 -5 -1121 c-4 -942 -7 -1125 -19 -1149 -32 -62 -123 -86 -186 -47 -64
39 -60 -34 -63 1212 l-2 1137 -53 6 c-28 4 -79 5 -112 3 l-60 -3 -5 -343 -5
-344 -37 -34 c-30 -27 -46 -34 -78 -34 -50 0 -91 20 -116 57 -18 26 -19 53
-22 356 l-3 328 -27 -5 c-15 -3 -70 -13 -122 -21 -85 -14 -359 -81 -368 -90
-3 -3 123 -336 323 -850 112 -287 117 -303 113 -362 -3 -50 -10 -72 -34 -105
-89 -127 -283 -124 -358 5 -22 38 -188 457 -376 952 -40 105 -75 193 -79 196
-6 7 -178 -75 -329 -157 l-82 -45 0 -653 c0 -647 0 -654 -21 -680 -63 -80
-180 -71 -220 18 -17 38 -19 77 -19 594 0 303 -3 552 -6 552 -3 0 -46 -28 -95
-62 l-89 -61 0 -834 0 -833 3090 0 3090 0 0 4000 0 4000 -4000 0 -4000 0 0
-4000z"/>
</g>
</svg>
