<?xml version="1.0" standalone="no"?>
<!DOCTYPE svg PUBLIC "-//W3C//DTD SVG 20010904//EN"
 "http://www.w3.org/TR/2001/REC-SVG-20010904/DTD/svg10.dtd">
<svg version="1.0" xmlns="http://www.w3.org/2000/svg"
 width="800.000000pt" height="800.000000pt" viewBox="0 0 800.000000 800.000000"
 preserveAspectRatio="xMidYMid meet">
<metadata>
Created by potrace 1.11, written by Peter Selinger 2001-2013
</metadata>
<g transform="translate(0.000000,800.000000) scale(0.100000,-0.100000)"
fill="#000000" stroke="none">
<path d="M728 7595 c-82 -22 -141 -57 -204 -119 -33 -34 -70 -82 -83 -109 -54
-112 -51 100 -51 -3367 0 -2874 2 -3222 16 -3275 39 -152 167 -280 319 -320
49 -12 131 -15 462 -15 222 0 403 3 403 6 0 3 -23 31 -51 62 -285 319 -479
908 -479 1457 0 704 329 1563 849 2215 106 133 336 366 466 473 306 251 664
429 1010 503 172 36 317 48 525 41 307 -10 540 -60 763 -164 42 -20 79 -34 80
-32 2 2 39 94 82 204 117 299 371 918 579 1412 140 334 207 508 280 730 53
160 96 297 96 302 0 17 -5000 13 -5062 -4z"/>
<path d="M6681 7563 c118 -107 192 -204 230 -303 30 -77 37 -244 15 -362 -41
-219 -65 -275 -476 -1123 -951 -1961 -1388 -2975 -1643 -3815 -180 -592 -229
-988 -145 -1182 24 -57 100 -130 154 -149 63 -22 224 -17 319 10 483 136 991
667 1363 1423 78 159 102 199 124 208 43 19 91 4 144 -43 l47 -43 -17 -84
c-39 -190 -163 -507 -290 -740 -204 -374 -470 -727 -695 -923 l-53 -47 729 0
c624 0 737 2 788 15 152 40 280 168 319 320 14 53 16 401 16 3275 0 3467 3
3255 -51 3367 -29 62 -130 163 -192 192 -96 46 -134 51 -446 51 l-293 0 53
-47z"/>
<path d="M3560 4023 c-558 -44 -1154 -541 -1524 -1272 -137 -271 -225 -516
-276 -771 -108 -541 -39 -929 214 -1197 214 -227 513 -335 881 -320 210 9 357
47 538 139 155 79 308 204 394 321 l35 47 2 308 c3 321 12 422 62 732 75 457
212 997 402 1587 l59 182 -21 19 c-75 68 -261 161 -381 192 -74 19 -263 42
-315 38 -14 -1 -45 -3 -70 -5z"/>
<path d="M3820 554 c-52 -47 -117 -102 -143 -122 l-48 -37 197 -3 c108 -1 199
0 202 2 2 3 -5 17 -16 33 -28 40 -62 110 -81 165 l-16 48 -95 -86z"/>
</g>
</svg>
